# xmcd CD database file
# Copyright (C) 1993-1996 Ti Kan
#
# Track frame offsets:
# 182
# 12585
# 25115
# 36002
# 48582
# 58767
# 68302
# 80400
# 92175
# 103600
# 118347
# 127650
# 138515
# 152257
# 164392
# 177257
# 187707
# 200007
# 210027
# 223435
#
# Disc length: 3096 seconds
#
# Revision: 0
# Processed by: cddbd v1.4b41PL1 Copyright (c) Steve Scherf et al.
# Submitted via: inCDius 1.1b5
#
DISCID=0c0c1614
DTITLE=Porter Wagoner - Greatest Hits
DYEAR=1900
DGENRE=
TTITLE0=Company Comin'
TTITLE1=A Satisfied Mind
TTITLE2=Eat, Drink And Be Merry (Tomorrow You'll Cry)
TTITLE3=What Would You Do (If Jesus Came To Your House)
TTITLE4=Your Old Love Letters
TTITLE5=Tryin'To Forget The Blues
TTITLE6=I Thought I Heard You Call My Name
TTITLE7=Misery Loves Company
TTITLE8=Cold Dark Waters
TTITLE9=The Cold Hard Facts Of Life
TTITLE10=Sorrow On The Rocks
TTITLE11=Green, Green Grass Of Home
TTITLE12=Skid Row Joe
TTITLE13=I've Enjoyed As Much Of This As I Can Stand
TTITLE14=The Carroll County Accident
TTITLE15=Big Wind
TTITLE16=The Rubber Room
TTITLE17=What Ain't To Be, Just Might Happen
TTITLE18=A World Without Music
TTITLE19=Carolina Moonshiner
EXTD=
EXTT0=
EXTT1=
EXTT2=
EXTT3=
EXTT4=
EXTT5=
EXTT6=
EXTT7=
EXTT8=
EXTT9=
EXTT10=
EXTT11=
EXTT12=
EXTT13=
EXTT14=
EXTT15=
EXTT16=
EXTT17=
EXTT18=
EXTT19=
PLAYORDER=
